<svg xmlns="http://www.w3.org/2000/svg" width="1000" height="1000"><path fill="#AEBAF4" d="M37.925 662.5c6.45-97.575 87.9-175 187.075-175h150c99.2 0 180.65 77.425 187.075 175H37.925z"/><path fill="#6161C6" d="M375 500c88 0 161.051 65.3 173.226 150H51.775C63.95 565.3 137 500 225 500h150m0-25H225c-110.45 0-200 89.55-200 200h550c0-110.45-89.55-200-200-200z"/><path fill="#D9E0F4" d="M300 543.65c-66.7 0-84.524-36.55-87.5-44.125V412.5h175v87c-3 7.699-20.824 44.15-87.5 44.15z"/><path fill="#6161C6" d="M375 425v71.824c-4.175 8.5-21.3 34.325-75 34.325-54.149 0-71.1-26.225-75-34.2V425h150m25-25H200v101.6s15.7 54.525 100 54.525c84.301 0 100-54.525 100-54.525V400z"/><path fill="#DFF0FE" d="M425 337.5c-20.675 0-37.5-16.825-37.5-37.5s16.825-37.5 37.5-37.5c34.65 0 37.5 9.85 37.5 20.825C462.5 306 443.6 337.5 425 337.5zm-250 0c-18.6 0-37.5-31.5-37.5-54.175 0-10.976 2.851-20.825 37.5-20.825 20.675 0 37.5 16.825 37.5 37.5s-16.825 37.5-37.5 37.5z"/><path fill="#6161C6" d="M425 275c20.625 0 24.351 3.875 24.375 3.899.15.25.625 1.625.625 4.426 0 18-15.725 41.675-25 41.675-13.774 0-25-11.226-25-25 0-13.775 11.225-25 25-25m-250 0c13.775 0 25 11.225 25 25 0 13.774-11.225 25-25 25-9.274 0-25-23.676-25-41.675 0-2.801.476-4.176.601-4.4.049-.05 3.774-3.925 24.399-3.925m250-25c-27.625 0-50 22.375-50 50s22.375 50 50 50 50-39.051 50-66.675c0-27.6-22.375-33.325-50-33.325zm-250 0c-27.625 0-50 5.725-50 33.325C125 310.949 147.375 350 175 350s50-22.375 50-50-22.375-50-50-50z"/><path fill="#D9E0F4" d="M300 462.5c-10 0-19.5-4.551-26.075-12.45l-2.625-3.15-4-1c-61.7-15.1-104.8-69.95-104.8-133.4V181.075c0-32.525 26.476-58.976 58.976-58.976H378.5c32.525 0 58.976 26.476 58.976 58.976V312.5c0 63.45-43.101 118.3-104.775 133.399l-4 1-2.625 3.15C319.5 457.949 310 462.5 300 462.5z"/><path fill="#6161C6" d="M378.525 134.6c25.625 0 46.475 20.85 46.475 46.5v131.4c0 57.675-39.175 107.55-95.25 121.25l-8 1.949-5.274 6.325c-2.45 3-7.9 7.976-16.476 7.976s-14.024-4.976-16.5-7.95l-5.274-6.325-8-1.95C214.175 420.05 175 370.175 175 312.5V181.075c0-25.625 20.851-46.5 46.476-46.5h157.05m-.001-24.975h-157.05C182 109.6 150 141.6 150 181.075V312.5c0 70.524 48.726 129.5 114.3 145.55C272.85 468.324 285.575 475 300 475c14.426 0 27.15-6.676 35.7-16.95C401.275 442 450 383.025 450 312.5V181.075c0-39.475-32-71.475-71.475-71.475z"/><path fill="#AEBAF4" d="M437.5 312.5V275c0-67.575-54.725-103.65-57.074-105.15l-8.275-5.325-7.125 6.801c-.325.3-37.775 34.449-116.575 34.449-42.775 0-85.925 25.625-85.925 82.875v23.85h-2.976c-6.225-23.45-22.05-88-22.05-137.5 0-68.325 53-137.5 154.325-137.5 54.25 0 70.851 40.3 71.525 42.024l3.125 7.9L375 87.5c36.7 0 87.5 31 87.5 89.2 0 45.225-15.949 111.675-22.125 135.8H437.5z"/><path fill="#6161C6" d="M291.825 50c44.476 0 58.5 30.725 59.825 33.899L357.775 100H375c26.15 0 75 22.5 75 76.7 0 17.574-2.524 38.6-5.925 58.999-15.25-48.975-54.8-75.024-56.85-76.35l-16.4-10.225L356.6 162.1c-1.4 1.275-35.05 31.2-108.15 31.2-42.75 0-76 21.35-90.5 55.1-4.4-23.875-7.95-50.375-7.95-73.4 0-62.125 48.725-125 141.825-125m0-25C186.375 25 125 96.8 125 175c0 63.875 25 150 25 150h25v-36.325c0-48.275 34.976-70.4 73.425-70.4 85.575 0 125.226-37.925 125.226-37.925S425 213.475 425 275v50h25s25-90.075 25-148.3C475 110.35 417.125 75 375 75c0 0-19.05-50-83.175-50z"/><path fill="#C6D0F4" d="M237.925 812.5c6.45-97.575 87.9-175 187.075-175h150c99.2 0 180.65 77.425 187.075 175h-524.15z"/><path fill="#6161C6" d="M575 650c88 0 161.051 65.3 173.226 150h-496.45c12.175-84.7 85.2-150 173.225-150H575m0-25H425c-110.449 0-200 89.55-200 200h550c0-110.45-89.55-200-200-200z"/><path fill="#FFF" d="M500 693.65c-66.699 0-84.524-36.55-87.5-44.125V562.5h175v87c-3 7.699-20.824 44.15-87.5 44.15z"/><path fill="#6161C6" d="M575 575v71.824c-4.175 8.5-21.3 34.325-75 34.325-54.149 0-71.1-26.225-75-34.2V575h150m25-25H400v101.6s15.7 54.525 100 54.525c84.301 0 100-54.525 100-54.525V550z"/><path fill="#DFF0FE" d="M625 487.5c-20.675 0-37.5-16.825-37.5-37.5 0-20.676 16.825-37.5 37.5-37.5 34.65 0 37.5 9.85 37.5 20.824C662.5 456 643.6 487.5 625 487.5zm-250 0c-18.6 0-37.5-31.5-37.5-54.176 0-10.975 2.851-20.824 37.5-20.824 20.676 0 37.5 16.824 37.5 37.5 0 20.675-16.824 37.5-37.5 37.5z"/><path fill="#6161C6" d="M625 425c20.625 0 24.351 3.875 24.375 3.899.15.25.625 1.625.625 4.425 0 18-15.725 41.676-25 41.676-13.774 0-25-11.226-25-25 0-13.775 11.225-25 25-25m-250 0c13.775 0 25 11.225 25 25 0 13.774-11.225 25-25 25-9.274 0-25-23.676-25-41.676 0-2.8.476-4.175.601-4.399.049-.05 3.774-3.925 24.399-3.925m250-25c-27.625 0-50 22.375-50 50s22.375 50 50 50 50-39.051 50-66.676C675 405.725 652.625 400 625 400zm-250 0c-27.625 0-50 5.725-50 33.324C325 460.949 347.375 500 375 500s50-22.375 50-50-22.375-50-50-50z"/><path fill="#FFF" d="M500 612.5c-10 0-19.5-4.551-26.074-12.45l-2.625-3.15-4-1C405.6 580.8 362.5 525.949 362.5 462.5V331.075c0-32.525 26.476-58.976 58.976-58.976H578.5c32.525 0 58.976 26.475 58.976 58.976V462.5c0 63.449-43.101 118.3-104.775 133.399l-4 1-2.625 3.15C519.5 607.949 510 612.5 500 612.5z"/><path fill="#6161C6" d="M578.525 284.6c25.625 0 46.475 20.85 46.475 46.5v131.4c0 57.675-39.175 107.55-95.25 121.25l-8 1.949-5.274 6.325c-2.45 3-7.9 7.976-16.476 7.976-8.574 0-14.024-4.976-16.5-7.95l-5.274-6.325-8-1.95C414.176 570.05 375 520.175 375 462.5V331.075c0-25.625 20.851-46.5 46.476-46.5h157.05m-.001-24.975H421.5c-39.475 0-71.475 32-71.475 71.5v131.4c0 70.524 48.725 129.5 114.3 145.55C472.85 618.324 485.575 625 500 625c14.426 0 27.15-6.676 35.7-16.95C601.275 592 650 533.025 650 462.5V331.075c0-39.475-32-71.475-71.475-71.475z"/><path fill="#C6D0F4" d="M637.5 462.5V425c0-67.575-54.725-103.65-57.074-105.15l-8.275-5.325-7.125 6.801c-.325.3-37.775 34.449-116.575 34.449-42.774 0-85.925 25.625-85.925 82.875v23.85h-2.95c-6.25-23.45-22.075-88-22.075-137.5 0-68.325 53-137.5 154.325-137.5 54.25 0 70.851 40.3 71.525 42.024l3.125 7.9 8.524.076c36.7 0 87.5 31 87.5 89.199 0 45.226-15.949 111.676-22.125 135.801H637.5z"/><path fill="#6161C6" d="M491.825 200c44.476 0 58.5 30.725 59.825 33.899L557.775 250H575c26.15 0 75 22.5 75 76.699 0 17.575-2.524 38.601-5.925 59-15.25-48.975-54.8-75.024-56.85-76.35l-16.4-10.225L556.6 312.1c-1.4 1.275-35.05 31.2-108.15 31.2-42.75 0-76 21.35-90.5 55.1-4.399-23.875-7.95-50.375-7.95-73.4 0-62.125 48.725-125 141.825-125m0-25C386.375 175 325 246.8 325 325c0 63.875 25 150 25 150h25v-36.325c0-48.275 34.976-70.4 73.426-70.4 85.574 0 125.225-37.925 125.225-37.925S625 363.475 625 425v50h25s25-90.075 25-148.301C675 260.35 617.125 225 575 225c0 0-19.05-50-83.175-50z"/><path fill="#AEBAF4" d="M775 987.5c-117.175 0-212.5-95.325-212.5-212.5 0-117.176 95.325-212.5 212.5-212.5 117.176 0 212.5 95.324 212.5 212.5 0 117.175-95.324 212.5-212.5 212.5z"/><path fill="#6161C6" d="M775 575c110.275 0 200 89.725 200 200 0 110.274-89.725 200-200 200-110.274 0-200-89.726-200-200 0-110.275 89.725-200 200-200m0-25c-124.274 0-225 100.725-225 225 0 124.274 100.726 225 225 225 124.275 0 225-100.726 225-225 0-124.275-100.725-225-225-225z"/><path fill="#FFF" d="M775 926.929c-14.873 0-26.929-12.056-26.929-26.929V650c0-14.873 12.056-26.929 26.929-26.929s26.929 12.056 26.929 26.929v250c-.001 14.873-12.056 26.929-26.929 26.929z"/><path fill="#FFF" d="M900 801.929H650c-14.873 0-26.929-12.056-26.929-26.929s12.056-26.929 26.929-26.929h250c14.873 0 26.929 12.056 26.929 26.929S914.873 801.929 900 801.929z"/></svg>